<svg width="439" height="439" viewBox="0 0 439 439" fill="none" xmlns="http://www.w3.org/2000/svg">
<circle cx="219.5" cy="219.5" r="219.5" fill="#1F2140"/>
<path d="M220.7 342.9C198.067 342.9 177.65 337.65 159.45 327.15C141.25 316.65 126.9 301.717 116.4 282.35C105.9 262.983 100.65 240.583 100.65 215.15C100.65 189.717 106.017 167.433 116.75 148.3C127.717 129.167 142.767 114.35 161.9 103.85C181.033 93.35 202.85 88.1 227.35 88.1C239.717 88.1 251.85 89.3833 263.75 91.95C275.883 94.5167 286.733 97.9 296.3 102.1L293.15 131.15C270.517 122.517 248.933 118.2 228.4 118.2C208.1 118.2 191.067 122.517 177.3 131.15C163.767 139.55 153.617 151.1 146.85 165.8C140.317 180.267 137.05 196.833 137.05 215.5C137.05 244.9 144.867 268.467 160.5 286.2C176.367 303.933 199.583 312.8 230.15 312.8C236.683 312.8 243.683 312.333 251.15 311.4C258.617 310.233 265.267 308.483 271.1 306.15V245.25H232.6V215.15H304.35V324.35C294.083 329.95 281.717 334.5 267.25 338C253.017 341.267 237.5 342.9 220.7 342.9Z" fill="#484FDE"/>
</svg>
